<svg xmlns="http://www.w3.org/2000/svg" xmlns:xlink="http://www.w3.org/1999/xlink" width="2000" zoomAndPan="magnify" viewBox="0 0 1500 1499.999933" height="2000" preserveAspectRatio="xMidYMid meet" version="1.0"><path fill="#1E3A10" d="M 608.300781 1091.765625 C 598.019531 1035.765625 615.625 939.066406 630.585938 884.679688 C 641.933594 843.410156 675.265625 753.480469 730.414062 771.019531 C 739.210938 773.820312 749.082031 784.191406 752.554688 793.125 C 770.902344 840.339844 756.875 895.785156 742.3125 941.859375 C 732.394531 965.976562 725.007812 985.824219 713.15625 1009.460938 C 697.101562 1041.492188 679.738281 1067.976562 660.324219 1097.621094 C 663.078125 1115.199219 664.277344 1117.507812 677.144531 1129.289062 C 684.167969 1129.984375 687.941406 1130.644531 696.375 1129.675781 C 709.210938 1128.898438 721.449219 1113.546875 732.550781 1111.898438 C 741.382812 1113.355469 744.832031 1122.132812 744.5 1129.152344 C 742.707031 1166.941406 696.398438 1186.660156 664.847656 1177.679688 C 642.027344 1171.191406 631.6875 1157.933594 620.027344 1137.023438 C 558.265625 1200.398438 493.839844 1198.027344 474.011719 1101.828125 C 459.386719 1030.886719 491.460938 785.136719 572.191406 770.011719 L 573.339844 769.878906 C 584.5 768.636719 595.878906 768.707031 604.875 776.679688 C 617.84375 788.171875 625.113281 812.371094 625.917969 829.792969 C 629.609375 909.832031 586.785156 998.1875 546.429688 1064.238281 C 540.671875 1073.660156 529.90625 1090.382812 523.394531 1098.347656 C 528.195312 1116.488281 533.644531 1132.875 555.371094 1131.152344 C 577.695312 1129.382812 594.871094 1108.273438 608.300781 1091.765625 Z M 656.683594 1040.003906 C 658.917969 1035.839844 661.75 1030.886719 663.753906 1026.691406 C 694.371094 972.289062 729.183594 888.210938 719.359375 823.167969 C 718.371094 816.601562 713.882812 812.109375 707.460938 811.484375 C 674.421875 839.378906 657.5 992.90625 656.683594 1040.003906 Z M 520.71875 1039.757812 L 528.402344 1026.992188 C 554.308594 975.199219 579.113281 924.097656 584.351562 864.664062 C 585.484375 851.8125 589.664062 812.535156 571.375 811.140625 C 568.734375 814.269531 563.046875 821.089844 561.519531 824.523438 C 536.921875 879.910156 520.925781 979.960938 520.71875 1039.757812 Z M 520.71875 1039.757812 " fill-rule="nonzero"></path><path fill="#1E3A10" d="M 323.59375 881.054688 C 327.066406 881.109375 330.539062 881.230469 334.007812 881.421875 C 426.835938 886.875 468.269531 964.984375 463.425781 1050.714844 L 330.496094 1051.199219 C 312.273438 1051.230469 275.085938 1052.34375 258.023438 1050.570312 C 259.210938 1075.199219 265.839844 1101.972656 289.644531 1113.863281 C 325.960938 1132.003906 370.289062 1122.765625 389.824219 1086.230469 C 407.894531 1084.832031 437.25 1085.867188 456.046875 1086.003906 L 457.613281 1086.582031 L 457.976562 1088.738281 C 451.75 1105.375 441.230469 1127.167969 429.378906 1140.304688 C 381.09375 1193.816406 279.253906 1193.9375 226.742188 1146.96875 C 167.132812 1093.652344 164.511719 984.820312 218.15625 926.589844 C 248.40625 893.75 280.199219 883.355469 323.59375 881.054688 Z M 257.945312 1000.503906 L 331.679688 1000.683594 L 385.683594 1000.675781 C 377.707031 957.480469 358.511719 938.453125 313.605469 940.445312 C 278.683594 946.289062 261.433594 965.925781 257.945312 1000.503906 Z M 257.945312 1000.503906 " fill-rule="nonzero"></path><path fill="#1E3A10" d="M 495.4375 454.867188 C 515.929688 456.175781 550.988281 455.144531 572.523438 455.167969 C 573.140625 515.128906 571.046875 577.441406 573.808594 637.382812 C 574.210938 646.109375 581.722656 669.425781 588.367188 675.214844 C 607.207031 691.609375 647.886719 689.632812 665.652344 671.867188 C 675.226562 662.128906 680.363281 644.609375 682.128906 631.921875 C 685.222656 609.636719 684.320312 586.007812 684.304688 563.660156 C 684.136719 527.476562 684.1875 491.289062 684.449219 455.105469 C 710.566406 454.890625 736.675781 455.027344 762.78125 455.515625 C 762.160156 487.320312 762.804688 521.417969 762.828125 553.414062 L 762.605469 741.132812 C 737.457031 741.304688 712.300781 741.289062 687.15625 741.078125 C 687.300781 727.832031 687.226562 714.585938 686.933594 701.339844 C 659.898438 734.441406 641.796875 746.046875 598.082031 747.515625 C 539.757812 749.453125 499.855469 720.148438 496.398438 659.875 C 495.023438 635.921875 495.269531 612.464844 495.273438 588.4375 Z M 495.4375 454.867188 " fill-rule="nonzero"></path><path fill="#1E3A10" d="M 1198.15625 805.894531 C 1220.605469 807.257812 1252.542969 805.878906 1276.523438 806.414062 L 1276.601562 890.96875 L 1334.265625 891.402344 C 1334.484375 908.917969 1334.40625 926.429688 1334.066406 943.941406 L 1276.726562 944.242188 L 1276.550781 1040.078125 C 1276.523438 1054.921875 1273.4375 1101.84375 1284.914062 1113.355469 C 1291.332031 1119.796875 1324.132812 1117.148438 1334.382812 1116.710938 C 1334.519531 1136.039062 1334.417969 1155.367188 1334.089844 1174.695312 L 1333.660156 1176.152344 C 1329.863281 1179.851562 1300.265625 1180.675781 1293.316406 1180.613281 C 1193.171875 1179.6875 1197.890625 1141.5 1197.902344 1062.308594 L 1198.066406 944.382812 C 1182.453125 944.136719 1166.824219 944.003906 1151.207031 943.980469 C 1150.8125 926.644531 1151.019531 908.792969 1151.019531 891.40625 C 1165.722656 890.824219 1183.007812 891.21875 1197.902344 891.203125 C 1197.839844 862.761719 1197.925781 834.328125 1198.15625 805.894531 Z M 1198.15625 805.894531 " fill-rule="nonzero"></path><path fill="#1E3A10" d="M 820.660156 370.4375 C 846.753906 370.199219 872.847656 370.195312 898.941406 370.417969 C 899.003906 398.320312 899.347656 426.851562 899.003906 454.699219 C 917.933594 455.097656 936.855469 455.28125 955.785156 455.25 C 955.808594 471.863281 956.34375 491.734375 955.632812 508.089844 C 939.308594 508.308594 915.265625 509.308594 899.207031 508.464844 L 898.980469 604.390625 C 898.980469 616.871094 896.714844 666.5625 905.078125 675.957031 C 912.253906 684.011719 943.460938 680.660156 955.785156 680.542969 C 955.824219 691.546875 956.542969 713.953125 955.683594 724.082031 C 954.785156 727.597656 953.910156 731.117188 953.050781 734.648438 C 948.179688 739.804688 921.085938 737.800781 912.914062 737.964844 C 887.855469 738.257812 864.976562 740.519531 843.855469 724.550781 C 835.65625 718.347656 827.074219 700.898438 822.992188 697.777344 C 819.132812 679.148438 820.371094 644.675781 820.394531 623.957031 L 820.382812 508.453125 C 804.820312 508.695312 789.242188 508.554688 773.6875 508.03125 C 773.710938 490.800781 773.382812 472.300781 773.828125 455.175781 L 820.179688 455.027344 C 820.722656 427.175781 819.726562 397.796875 820.660156 370.4375 Z M 820.660156 370.4375 " fill-rule="nonzero"></path><path fill="#1E3A10" d="M 1129.722656 448.222656 C 1139.160156 447.617188 1144.957031 448.539062 1153.878906 450.894531 C 1154.09375 475.0625 1154.054688 499.234375 1153.753906 523.402344 C 1110.425781 516.699219 1066.386719 523.539062 1053.78125 573.804688 C 1047.429688 599.1875 1049.464844 632.003906 1049.53125 658.507812 L 1049.402344 741.066406 C 1023.359375 741.320312 997.316406 741.324219 971.261719 741.070312 L 971.273438 718.109375 L 971.464844 455.160156 L 1045.507812 455.199219 C 1045.492188 473.792969 1045.671875 492.386719 1046.027344 510.976562 C 1063.5 470.539062 1087.441406 455.601562 1129.722656 448.222656 Z M 1129.722656 448.222656 " fill-rule="nonzero"></path><path fill="#1E3A10" d="M 777.917969 892.933594 C 803.671875 892.679688 829.4375 892.699219 855.1875 892.992188 C 854.960938 980.453125 856.667969 1070.433594 855.097656 1157.605469 C 853.1875 1163.121094 854.515625 1167.28125 851.65625 1171.492188 C 842.457031 1176.566406 792.332031 1172.898438 779.460938 1172.050781 C 777.867188 1163.6875 778.691406 1127.039062 778.703125 1116 L 778.804688 962.398438 C 778.804688 950.359375 779.550781 902.464844 778.09375 893.917969 Z M 777.917969 892.933594 " fill-rule="nonzero"></path><path fill="#1E3A10" d="M 776.792969 1179.558594 C 775.730469 1113.953125 777.234375 1047.027344 776.589844 981.300781 C 776.476562 969.417969 775.832031 900.421875 777.917969 892.933594 L 778.09375 893.917969 C 779.550781 902.464844 778.804688 950.359375 778.804688 962.398438 L 778.703125 1116 C 778.691406 1127.039062 777.867188 1163.6875 779.460938 1172.050781 C 792.332031 1172.898438 842.457031 1176.566406 851.65625 1171.492188 C 854.515625 1167.28125 853.1875 1163.121094 855.097656 1157.605469 C 855.273438 1164.046875 854.832031 1172.246094 854.644531 1178.835938 C 830.207031 1180.335938 801.757812 1179.0625 776.792969 1179.558594 Z M 776.792969 1179.558594 " fill-rule="nonzero"></path><path fill="#1E3A10" d="M 822.992188 697.777344 C 827.074219 700.898438 835.65625 718.347656 843.855469 724.550781 C 864.976562 740.519531 887.855469 738.257812 912.914062 737.964844 C 921.085938 737.800781 948.179688 739.804688 953.050781 734.648438 C 953.910156 731.117188 954.785156 727.597656 955.683594 724.078125 C 955.835938 728.917969 956.597656 736.023438 954.785156 740.253906 C 947.394531 744.464844 928.691406 743.472656 919.832031 743.582031 C 893.703125 743.828125 866.039062 743.894531 843.4375 728.742188 C 831.480469 720.71875 825.671875 711.546875 822.992188 697.777344 Z M 822.992188 697.777344 " fill-rule="nonzero"></path><path fill="#1E3A10" d="M 811.484375 808.984375 L 829.53125 808.984375 C 831.320312 809.871094 836.964844 810.25 838.96875 810.964844 L 839.027344 811.03125 C 839.890625 811.949219 842.777344 813.023438 844.195312 813.511719 C 850.953125 815.824219 855.925781 819.703125 859.703125 824.636719 C 860.226562 825.324219 860.546875 826.589844 860.996094 827.339844 C 861.34375 828.363281 862.820312 829.722656 862.859375 830.4375 C 862.90625 831.179688 862.148438 832.292969 863.140625 832.953125 C 863.320312 833.078125 863.292969 833.640625 863.261719 833.910156 C 862.863281 837.203125 863.3125 840.617188 863.351562 843.921875 C 863.257812 844.019531 863.183594 844.101562 863.121094 844.167969 L 862.960938 843.179688 L 862.820312 843.234375 C 862.699219 844.160156 863.046875 845.4375 863.054688 846.605469 C 861.355469 854.21875 856.238281 860.734375 848.453125 865.699219 C 835.074219 874.230469 817.296875 874.917969 800.808594 873.125 C 785.582031 871.46875 772.554688 863.046875 770.570312 850.304688 C 770.84375 848.269531 770.519531 844.601562 770.652344 842.390625 C 770.722656 841.191406 770.859375 837.691406 770.742188 836.679688 C 770.667969 835.886719 771.53125 833.585938 771.882812 832.683594 C 776.417969 821.097656 792.121094 812.171875 806.902344 810.09375 C 808.398438 809.882812 810.242188 809.628906 811.484375 808.984375 Z M 811.484375 808.984375 " fill-rule="nonzero"></path><path fill="#1E3A10" d="M 608.300781 1085.582031 C 598.019531 1029.582031 615.625 932.882812 630.585938 878.496094 C 641.933594 837.222656 675.265625 747.292969 730.414062 764.835938 C 739.210938 767.632812 749.082031 778.007812 752.554688 786.941406 C 770.902344 834.152344 756.875 889.601562 742.3125 935.671875 C 732.394531 959.792969 725.007812 979.636719 713.15625 1003.277344 C 697.101562 1035.308594 679.738281 1061.789062 660.324219 1091.4375 C 663.078125 1109.015625 664.277344 1111.320312 677.144531 1123.101562 C 684.167969 1123.800781 687.941406 1124.460938 696.375 1123.488281 C 709.210938 1122.710938 721.449219 1107.359375 732.550781 1105.710938 C 741.382812 1107.171875 744.832031 1115.945312 744.5 1122.964844 C 742.707031 1160.753906 696.398438 1180.472656 664.847656 1171.496094 C 642.027344 1165.003906 631.6875 1151.75 620.027344 1130.839844 C 558.265625 1194.214844 493.839844 1191.84375 474.011719 1095.640625 C 459.386719 1024.699219 491.460938 778.953125 572.191406 763.828125 L 573.339844 763.695312 C 584.5 762.453125 595.878906 762.519531 604.875 770.496094 C 617.84375 781.988281 625.113281 806.1875 625.917969 823.605469 C 629.609375 903.648438 586.785156 992 546.429688 1058.054688 C 540.671875 1067.476562 529.90625 1084.195312 523.394531 1092.164062 C 528.195312 1110.300781 533.644531 1126.691406 555.371094 1124.96875 C 577.695312 1123.199219 594.871094 1102.085938 608.300781 1085.582031 Z M 656.683594 1033.816406 C 658.917969 1029.65625 661.75 1024.699219 663.753906 1020.507812 C 694.371094 966.105469 729.183594 882.023438 719.359375 816.984375 C 718.371094 810.417969 713.882812 805.921875 707.460938 805.300781 C 674.421875 833.195312 657.5 986.722656 656.683594 1033.816406 Z M 520.71875 1033.574219 L 528.402344 1020.804688 C 554.308594 969.015625 579.113281 917.910156 584.351562 858.480469 C 585.484375 845.625 589.664062 806.351562 571.375 804.957031 C 568.734375 808.085938 563.046875 814.90625 561.519531 818.335938 C 536.921875 873.722656 520.925781 973.773438 520.71875 1033.574219 Z M 520.71875 1033.574219 " fill-rule="nonzero"></path><path fill="#1E3A10" d="M 323.59375 881.054688 C 327.066406 881.109375 330.539062 881.230469 334.007812 881.421875 C 426.835938 886.875 468.269531 964.984375 463.425781 1050.714844 L 330.496094 1051.199219 C 312.273438 1051.230469 275.085938 1052.34375 258.023438 1050.570312 C 259.210938 1075.199219 265.839844 1101.972656 289.644531 1113.863281 C 325.960938 1132.003906 370.289062 1122.765625 389.824219 1086.230469 C 407.894531 1084.832031 437.25 1085.867188 456.046875 1086.003906 L 457.613281 1086.582031 L 457.976562 1088.738281 C 451.75 1105.375 441.230469 1127.167969 429.378906 1140.304688 C 381.09375 1193.816406 279.253906 1193.9375 226.742188 1146.96875 C 167.132812 1093.652344 164.511719 984.820312 218.15625 926.589844 C 248.40625 893.75 280.199219 883.355469 323.59375 881.054688 Z M 257.945312 1000.503906 L 331.679688 1000.683594 L 385.683594 1000.675781 C 377.707031 957.480469 358.511719 938.453125 313.605469 940.445312 C 278.683594 946.289062 261.433594 965.925781 257.945312 1000.503906 Z M 257.945312 1000.503906 " fill-rule="nonzero"></path><path fill="#1E3A10" d="M 1198.15625 805.894531 C 1220.605469 807.257812 1252.542969 805.878906 1276.523438 806.414062 L 1276.601562 890.96875 L 1334.265625 891.402344 C 1334.484375 908.917969 1334.40625 926.429688 1334.066406 943.941406 L 1276.726562 944.242188 L 1276.550781 1040.078125 C 1276.523438 1054.921875 1273.4375 1101.84375 1284.914062 1113.355469 C 1291.332031 1119.796875 1324.132812 1117.148438 1334.382812 1116.710938 C 1334.519531 1136.039062 1334.417969 1155.367188 1334.089844 1174.695312 L 1333.660156 1176.152344 C 1329.863281 1179.851562 1300.265625 1180.675781 1293.316406 1180.613281 C 1193.171875 1179.6875 1197.890625 1141.5 1197.902344 1062.308594 L 1198.066406 944.382812 C 1182.453125 944.136719 1166.824219 944.003906 1151.207031 943.980469 C 1150.8125 926.644531 1151.019531 908.792969 1151.019531 891.40625 C 1165.722656 890.824219 1183.007812 891.21875 1197.902344 891.203125 C 1197.839844 862.761719 1197.925781 834.328125 1198.15625 805.894531 Z M 1198.15625 805.894531 " fill-rule="nonzero"></path><path fill="#1E3A10" d="M 776.792969 1179.558594 C 775.730469 1113.953125 777.234375 1047.027344 776.589844 981.300781 C 776.476562 969.417969 775.832031 900.421875 777.917969 892.933594 L 778.09375 893.917969 C 779.550781 902.464844 778.804688 950.359375 778.804688 962.398438 L 778.703125 1116 C 778.691406 1127.039062 777.867188 1163.6875 779.460938 1172.050781 C 792.332031 1172.898438 842.457031 1176.566406 851.65625 1171.492188 C 854.515625 1167.28125 853.1875 1163.121094 855.097656 1157.605469 C 855.273438 1164.046875 854.832031 1172.246094 854.644531 1178.835938 C 830.207031 1180.335938 801.757812 1179.0625 776.792969 1179.558594 Z M 776.792969 1179.558594 " fill-rule="nonzero"></path><path fill="#1E3A10" d="M 270.683594 744.039062 C 255.015625 744.039062 243.882812 735.792969 237.285156 719.296875 C 231.097656 702.800781 228.003906 676.414062 228.003906 640.128906 C 228.003906 586.519531 235.632812 535.59375 250.890625 487.347656 C 254.601562 475.390625 260.582031 466.730469 268.828125 461.371094 C 277.488281 455.597656 289.445312 452.710938 304.703125 452.710938 C 312.949219 452.710938 318.722656 453.742188 322.023438 455.804688 C 325.320312 457.867188 326.972656 461.785156 326.972656 467.554688 C 326.972656 474.15625 323.878906 489 317.691406 512.089844 C 313.566406 528.585938 310.269531 543.015625 307.796875 555.386719 C 305.324219 567.757812 303.257812 583.015625 301.609375 601.160156 C 315.21875 565.695312 330.476562 536.832031 347.382812 514.566406 C 364.285156 492.296875 380.78125 476.421875 396.863281 466.9375 C 413.359375 457.453125 428.410156 452.710938 442.015625 452.710938 C 455.210938 452.710938 465.105469 456.21875 471.707031 463.226562 C 478.714844 469.824219 482.222656 479.722656 482.222656 492.917969 C 482.222656 503.636719 479.953125 523.84375 475.417969 553.53125 C 471.292969 578.6875 467.996094 602.601562 465.519531 625.28125 C 463.046875 647.550781 461.808594 672.496094 461.808594 700.125 C 461.808594 715.792969 458.511719 727.132812 451.914062 734.144531 C 445.726562 740.738281 435.417969 744.039062 420.988281 744.039062 C 407.378906 744.039062 397.484375 740.53125 391.296875 733.523438 C 385.113281 726.515625 382.019531 716 382.019531 701.980469 C 382.019531 685.484375 384.90625 658.269531 390.679688 620.335938 C 395.628906 587.34375 398.101562 566.316406 398.101562 557.242188 C 398.101562 550.644531 395.832031 547.347656 391.296875 547.347656 C 385.933594 547.347656 378.308594 554.355469 368.414062 568.375 C 358.925781 581.984375 349.03125 600.128906 338.722656 622.808594 C 328.828125 645.488281 320.785156 669.402344 314.601562 694.558594 C 310.0625 713.9375 304.703125 727.132812 298.519531 734.144531 C 292.746094 740.738281 283.464844 744.039062 270.683594 744.039062 Z M 270.683594 744.039062 " fill-rule="nonzero"></path><path fill="#1E3A10" d="M 1226.324219 409.453125 C 1209.085938 411.125 1195.777344 408.476562 1186.402344 401.515625 C 1176.988281 394.140625 1171.585938 383.273438 1170.195312 368.90625 C 1168.804688 354.542969 1173.191406 342.101562 1183.359375 331.589844 C 1193.894531 320.625 1207.578125 314.328125 1224.40625 312.699219 C 1239.589844 311.226562 1252.261719 313.726562 1262.417969 320.203125 C 1272.574219 326.675781 1278.308594 336.683594 1279.621094 350.226562 C 1281.210938 366.644531 1277.148438 380.296875 1267.429688 391.179688 C 1257.675781 401.652344 1243.96875 407.746094 1226.324219 409.453125 Z M 1199.246094 745.785156 C 1186.113281 747.054688 1176.828125 745.261719 1171.382812 740.402344 C 1165.941406 735.542969 1162.664062 727.371094 1161.550781 715.878906 C 1161.234375 712.59375 1161.085938 706.808594 1161.113281 698.519531 C 1160.402344 622.773438 1164.660156 553.386719 1173.882812 490.347656 C 1175.933594 477.308594 1180.414062 467.964844 1187.324219 462.324219 C 1194.605469 456.234375 1206.65625 452.375 1223.488281 450.742188 C 1241.132812 449.035156 1250.652344 455.363281 1252.046875 469.726562 C 1252.246094 471.777344 1252.210938 475.71875 1251.949219 481.542969 C 1241.988281 571.164062 1238.042969 645.910156 1240.113281 705.78125 C 1240.566406 718.996094 1237.5625 728.609375 1231.101562 734.621094 C 1224.640625 740.628906 1214.023438 744.351562 1199.246094 745.785156 Z M 1199.246094 745.785156 " fill-rule="nonzero"></path><path fill="#1E3A10" d="M 1011.171875 880.339844 C 1015.246094 879.964844 1020.296875 880.167969 1024.457031 880.183594 C 1108.515625 880.453125 1171.75 932.15625 1180.828125 1017.988281 C 1185.671875 1059.902344 1173.851562 1102.042969 1148 1135.042969 C 1122.914062 1166.644531 1081.757812 1184.828125 1042.632812 1188.238281 C 1039.882812 1188.476562 1037.125 1188.5625 1034.410156 1188.855469 C 1032.96875 1189.042969 1031.617188 1189.097656 1030.167969 1189.167969 C 986.976562 1191.203125 942.46875 1178.710938 910.042969 1148.625 C 880.695312 1121.464844 865.511719 1082.664062 863.550781 1042.746094 C 860.972656 990.382812 883.394531 935.589844 927.433594 906.457031 C 950.816406 890.988281 983.292969 881.5 1011.171875 880.339844 Z M 1011.597656 1152.542969 C 1019.277344 1152.175781 1029.578125 1148.785156 1037.050781 1146.792969 C 1084.832031 1134.046875 1151.40625 1107.03125 1141.328125 1044.59375 C 1140.035156 1036.015625 1138.074219 1027.628906 1135.996094 1019.21875 C 1128.867188 990.339844 1119.273438 959.660156 1097.609375 938.527344 C 1081.097656 922.417969 1055.144531 915.296875 1032.652344 917.933594 C 1005.9375 919.933594 975.972656 926.046875 954 942.46875 C 947.925781 947.015625 942.703125 952.40625 937.796875 958.214844 C 918.410156 981.15625 900.476562 1037.609375 902.761719 1067.796875 C 904.570312 1091.742188 914.910156 1114.960938 932.996094 1130.691406 C 953.238281 1148.308594 977.910156 1155.890625 1004.402344 1153.742188 C 1006.839844 1153.546875 1009.214844 1153.074219 1011.597656 1152.542969 Z M 1011.597656 1152.542969 " fill-rule="nonzero"></path><path fill="#1E3A10" d="M 1082.867188 952.28125 C 1084.925781 951.554688 1084.628906 951.179688 1086.203125 952.007812 C 1086.527344 955.855469 1079.808594 965.347656 1077.734375 968.957031 C 1072.273438 978.542969 1066.878906 988.1875 1061.558594 997.890625 C 1027.871094 1058.8125 1012.519531 1092.71875 949.632812 1114.21875 C 948.535156 1114.929688 948.25 1114.824219 946.980469 1114.792969 L 946.449219 1113.488281 C 948.238281 1104.742188 958.660156 1087.050781 962.105469 1077.820312 C 982.207031 1023.882812 1013.523438 981.460938 1060.945312 960.4375 C 1067.910156 957.351562 1075.644531 955.148438 1082.867188 952.28125 Z M 1082.867188 952.28125 " fill-rule="nonzero"></path><path fill="#1E3A10" d="M 1084.988281 1096.714844 C 1085.703125 1098.660156 1085.984375 1098.386719 1085.429688 1099.855469 C 1082.398438 1100.101562 1074.425781 1093.664062 1071.429688 1091.664062 C 1063.464844 1086.398438 1055.460938 1081.199219 1047.414062 1076.0625 C 996.878906 1043.574219 968.972656 1028.675781 947.777344 969.332031 C 947.140625 968.292969 947.207031 968.027344 947.148438 966.835938 L 948.148438 966.355469 C 955.199219 968.15625 969.917969 978.199219 977.46875 981.5625 C 1021.566406 1001.199219 1057.277344 1031.207031 1077.074219 1076.023438 C 1079.984375 1082.605469 1082.242188 1089.894531 1084.988281 1096.714844 Z M 1084.988281 1096.714844 " fill-rule="nonzero"></path></svg>