<svg width="470" height="286" viewBox="0 0 470 286" fill="none" xmlns="http://www.w3.org/2000/svg">
<path d="M221.531 253.511C218.206 235.403 223.899 204.136 228.736 186.55C232.406 173.205 243.183 144.126 261.015 149.798C263.86 150.703 267.052 154.057 268.175 156.946C274.107 172.212 269.572 190.141 264.863 205.038C261.656 212.837 259.267 219.254 255.435 226.898C250.244 237.255 244.63 245.818 238.352 255.404C239.242 261.088 239.63 261.834 243.791 265.643C246.062 265.869 247.282 266.082 250.009 265.768C254.159 265.517 258.117 260.553 261.706 260.02C264.562 260.492 265.678 263.329 265.57 265.599C264.991 277.818 250.016 284.194 239.815 281.291C232.436 279.192 229.093 274.906 225.322 268.145C205.352 288.637 184.52 287.87 178.108 256.764C173.38 233.825 183.751 154.363 209.854 149.472L210.226 149.429C213.834 149.028 217.514 149.05 220.423 151.628C224.616 155.344 226.967 163.169 227.227 168.802C228.421 194.683 214.574 223.252 201.524 244.61C199.663 247.656 196.182 253.063 194.076 255.639C195.628 261.504 197.39 266.803 204.416 266.246C211.634 265.674 217.188 258.848 221.531 253.511ZM237.175 236.773C237.897 235.427 238.813 233.825 239.461 232.469C249.361 214.878 260.618 187.691 257.441 166.66C257.121 164.537 255.67 163.084 253.594 162.882C242.911 171.902 237.439 221.545 237.175 236.773ZM193.211 236.694L195.695 232.566C204.072 215.819 212.093 199.295 213.787 180.078C214.153 175.922 215.504 163.222 209.59 162.771C208.737 163.783 206.898 165.988 206.404 167.098C198.45 185.007 193.278 217.358 193.211 236.694Z" fill="currentColor"></path>
<path d="M129.471 185.378C130.594 185.395 131.717 185.434 132.838 185.496C162.854 187.259 176.252 212.516 174.685 240.237L131.703 240.393C125.81 240.403 113.786 240.763 108.269 240.19C108.653 248.154 110.797 256.811 118.494 260.656C130.237 266.521 144.57 263.534 150.886 251.721C156.729 251.268 166.222 251.603 172.299 251.648L172.806 251.834L172.924 252.532C170.91 257.911 167.508 264.958 163.676 269.205C148.063 286.508 115.134 286.547 98.1545 271.36C78.8801 254.121 78.0323 218.93 95.3774 200.101C105.159 189.482 115.44 186.121 129.471 185.378ZM108.244 224.001L132.086 224.059L149.548 224.057C146.969 210.09 140.762 203.937 126.241 204.581C114.95 206.471 109.372 212.82 108.244 224.001Z" fill="currentColor"></path>
<path d="M185.036 47.5711C191.663 47.9938 202.999 47.6603 209.962 47.6681C210.161 67.0562 209.485 87.2042 210.377 106.587C210.507 109.408 212.936 116.948 215.085 118.819C221.177 124.121 234.331 123.481 240.075 117.737C243.171 114.588 244.832 108.924 245.402 104.821C246.403 97.6148 246.111 89.9753 246.106 82.7486C246.052 71.0483 246.068 59.3479 246.153 47.6476C254.598 47.5777 263.04 47.6218 271.481 47.7798C271.28 58.0647 271.489 69.0895 271.497 79.4354L271.424 140.134C263.293 140.19 255.159 140.184 247.028 140.116C247.075 135.833 247.051 131.55 246.956 127.267C238.214 137.971 232.361 141.723 218.226 142.198C199.367 142.824 186.465 133.349 185.347 113.859C184.902 106.114 184.982 98.5297 184.983 90.7597L185.036 47.5711Z" fill="currentColor"></path>
<path d="M412.259 161.074C419.518 161.516 429.845 161.07 437.599 161.242L437.624 188.583L456.27 188.724C456.34 194.387 456.315 200.05 456.205 205.712L437.665 205.809L437.608 236.797C437.599 241.597 436.601 256.769 440.312 260.491C442.387 262.574 452.993 261.718 456.307 261.576C456.352 267.826 456.319 274.076 456.213 280.325L456.074 280.797C454.846 281.993 445.276 282.259 443.029 282.239C410.647 281.94 412.173 269.592 412.177 243.986L412.23 205.855C407.181 205.775 402.128 205.732 397.078 205.725C396.951 200.119 397.017 194.346 397.017 188.725C401.772 188.536 407.361 188.664 412.177 188.659C412.157 179.463 412.185 170.269 412.259 161.074Z" fill="currentColor"></path>
<path d="M290.197 20.2703C298.634 20.1937 307.071 20.1917 315.509 20.2643C315.529 29.2859 315.64 38.5117 315.529 47.5162C321.65 47.6447 327.768 47.7041 333.889 47.6938C333.897 53.0665 334.069 59.4915 333.84 64.7803C328.561 64.8511 320.787 65.1739 315.595 64.9014L315.521 95.9191C315.521 99.9537 314.788 116.022 317.493 119.06C319.813 121.664 329.904 120.58 333.889 120.542C333.901 124.1 334.134 131.345 333.856 134.621C333.566 135.757 333.283 136.896 333.005 138.037C331.43 139.704 322.669 139.057 320.026 139.11C311.924 139.205 304.526 139.936 297.697 134.772C295.046 132.767 292.271 127.124 290.95 126.115C289.702 120.091 290.103 108.945 290.111 102.245L290.107 64.8977C285.074 64.9759 280.037 64.9301 275.008 64.7611C275.016 59.1892 274.91 53.2076 275.053 47.6701L290.041 47.6226C290.217 38.6172 289.894 29.1171 290.197 20.2703Z" fill="currentColor"></path>
<path d="M390.131 45.4221C393.183 45.2261 395.057 45.5244 397.942 46.2859C398.011 54.1013 397.999 61.9168 397.901 69.7319C383.891 67.5636 369.651 69.7761 365.576 86.0287C363.522 94.2357 364.18 104.847 364.201 113.417L364.16 140.112C355.739 140.195 347.318 140.196 338.893 140.114L338.897 132.69L338.959 47.6656L362.9 47.6775C362.896 53.6901 362.953 59.7027 363.068 65.7141C368.718 52.6385 376.46 47.808 390.131 45.4221Z" fill="currentColor"></path>
<path d="M276.376 189.219C284.703 189.137 293.034 189.143 301.361 189.237C301.287 217.518 301.839 246.613 301.332 274.799C300.714 276.583 301.144 277.928 300.219 279.29C297.244 280.93 281.037 279.745 276.875 279.471C276.36 276.766 276.626 264.916 276.63 261.347L276.663 211.68C276.663 207.787 276.904 192.301 276.433 189.537L276.376 189.219Z" fill="currentColor"></path>
<path d="M276.012 281.898C275.668 260.685 276.155 239.044 275.947 217.792C275.91 213.95 275.701 191.64 276.376 189.219L276.433 189.537C276.904 192.301 276.663 207.787 276.663 211.68L276.63 261.347C276.626 264.916 276.36 276.766 276.875 279.471C281.037 279.745 297.244 280.93 300.219 279.29C301.144 277.928 300.714 276.583 301.332 274.799C301.389 276.883 301.246 279.534 301.185 281.664C293.283 282.15 284.085 281.738 276.012 281.898Z" fill="currentColor" fill-opacity="0.964706"></path>
<path d="M290.95 126.115C292.271 127.124 295.045 132.767 297.697 134.772C304.526 139.936 311.924 139.205 320.026 139.11C322.669 139.057 331.43 139.704 333.005 138.037C333.283 136.896 333.566 135.757 333.856 134.62C333.905 136.185 334.151 138.482 333.566 139.85C331.176 141.211 325.128 140.89 322.264 140.926C313.815 141.006 304.87 141.027 297.562 136.127C293.695 133.533 291.817 130.568 290.95 126.115Z" fill="currentColor" fill-opacity="0.964706"></path>
<path d="M287.23 162.074H293.065C293.643 162.36 295.469 162.483 296.117 162.714L296.136 162.735C296.414 163.033 297.348 163.38 297.807 163.537C299.991 164.285 301.6 165.54 302.821 167.135C302.99 167.357 303.094 167.766 303.239 168.009C303.351 168.34 303.829 168.78 303.842 169.01C303.856 169.25 303.612 169.61 303.932 169.824C303.991 169.864 303.982 170.046 303.972 170.133C303.843 171.198 303.988 172.302 304 173.371C303.97 173.402 303.946 173.429 303.926 173.45L303.874 173.131L303.829 173.148C303.79 173.448 303.902 173.861 303.905 174.239C303.355 176.7 301.7 178.807 299.183 180.412C294.857 183.171 289.109 183.393 283.777 182.813C278.854 182.278 274.642 179.555 274 175.434C274.088 174.776 273.983 173.59 274.026 172.876C274.049 172.488 274.094 171.356 274.055 171.029C274.032 170.772 274.311 170.028 274.424 169.737C275.891 165.99 280.968 163.104 285.748 162.432C286.231 162.364 286.828 162.282 287.23 162.074Z" fill="currentColor"></path>
<path d="M221.531 251.511C218.206 233.403 223.899 202.136 228.736 184.55C232.406 171.205 243.183 142.126 261.015 147.798C263.86 148.703 267.052 152.057 268.175 154.946C274.107 170.212 269.572 188.141 264.863 203.038C261.656 210.837 259.267 217.254 255.435 224.898C250.244 235.255 244.63 243.818 238.352 253.404C239.242 259.088 239.63 259.834 243.791 263.643C246.062 263.869 247.282 264.082 250.009 263.768C254.159 263.517 258.117 258.553 261.706 258.02C264.562 258.492 265.678 261.329 265.57 263.599C264.991 275.818 250.016 282.194 239.815 279.291C232.436 277.192 229.093 272.906 225.322 266.145C205.352 286.637 184.52 285.87 178.108 254.764C173.38 231.825 183.751 152.363 209.854 147.472L210.226 147.429C213.834 147.028 217.514 147.05 220.423 149.628C224.616 153.344 226.967 161.169 227.227 166.802C228.421 192.683 214.574 221.252 201.524 242.61C199.663 245.656 196.182 251.063 194.076 253.639C195.628 259.504 197.39 264.803 204.416 264.246C211.634 263.674 217.188 256.848 221.531 251.511ZM237.175 234.773C237.897 233.427 238.813 231.825 239.461 230.469C249.361 212.878 260.618 185.691 257.441 164.66C257.121 162.537 255.67 161.084 253.594 160.882C242.911 169.902 237.439 219.545 237.175 234.773ZM193.211 234.694L195.695 230.566C204.072 213.819 212.093 197.295 213.787 178.078C214.153 173.922 215.504 161.222 209.59 160.771C208.737 161.783 206.898 163.988 206.404 165.098C198.45 183.007 193.278 215.358 193.211 234.694Z" fill="currentColor"></path>
<path d="M129.471 185.378C130.594 185.395 131.717 185.434 132.838 185.496C162.854 187.259 176.252 212.516 174.685 240.237L131.703 240.393C125.81 240.403 113.786 240.763 108.269 240.19C108.653 248.154 110.797 256.811 118.494 260.656C130.237 266.521 144.57 263.534 150.886 251.721C156.729 251.268 166.222 251.603 172.299 251.648L172.806 251.834L172.924 252.532C170.91 257.911 167.508 264.958 163.676 269.205C148.063 286.508 115.134 286.547 98.1545 271.36C78.8801 254.121 78.0323 218.93 95.3774 200.101C105.159 189.482 115.44 186.121 129.471 185.378ZM108.244 224.001L132.086 224.059L149.548 224.057C146.969 210.09 140.762 203.937 126.241 204.581C114.95 206.471 109.372 212.82 108.244 224.001Z" fill="currentColor"></path>
<path d="M412.259 161.074C419.518 161.516 429.845 161.07 437.599 161.242L437.624 188.583L456.27 188.724C456.34 194.387 456.315 200.05 456.205 205.712L437.665 205.809L437.608 236.797C437.599 241.597 436.601 256.769 440.312 260.491C442.387 262.574 452.993 261.718 456.307 261.576C456.352 267.826 456.319 274.076 456.213 280.325L456.074 280.797C454.846 281.993 445.276 282.259 443.029 282.239C410.647 281.94 412.173 269.592 412.177 243.986L412.23 205.855C407.181 205.775 402.128 205.732 397.078 205.725C396.951 200.119 397.017 194.346 397.017 188.725C401.772 188.536 407.361 188.664 412.177 188.659C412.157 179.463 412.185 170.269 412.259 161.074Z" fill="currentColor"></path>
<path d="M276.012 281.898C275.668 260.685 276.155 239.044 275.947 217.792C275.91 213.95 275.701 191.64 276.376 189.219L276.433 189.537C276.904 192.301 276.663 207.787 276.663 211.68L276.63 261.347C276.626 264.916 276.36 276.766 276.875 279.471C281.037 279.745 297.244 280.93 300.219 279.29C301.144 277.928 300.714 276.583 301.332 274.799C301.389 276.883 301.246 279.534 301.185 281.664C293.283 282.15 284.085 281.738 276.012 281.898Z" fill="currentColor" fill-opacity="0.964706"></path>
<path d="M112.363 141.074C107.296 141.074 103.696 138.407 101.563 133.074C99.5625 127.74 98.5625 119.207 98.5625 107.474C98.5625 90.1404 101.029 73.6737 105.963 58.0737C107.163 54.2071 109.096 51.4071 111.763 49.6737C114.563 47.8071 118.429 46.8737 123.363 46.8737C126.029 46.8737 127.896 47.2071 128.963 47.8737C130.029 48.5404 130.563 49.8071 130.563 51.6737C130.563 53.8071 129.563 58.6071 127.563 66.0737C126.229 71.4071 125.163 76.0737 124.363 80.0737C123.563 84.0737 122.896 89.0071 122.363 94.8737C126.763 83.4071 131.696 74.0737 137.163 66.8737C142.629 59.6737 147.963 54.5404 153.163 51.4737C158.496 48.4071 163.363 46.8737 167.763 46.8737C172.029 46.8737 175.229 48.0071 177.363 50.2737C179.629 52.4071 180.763 55.6071 180.763 59.8737C180.763 63.3404 180.029 69.8737 178.563 79.4737C177.229 87.6071 176.163 95.3404 175.363 102.674C174.563 109.874 174.163 117.94 174.163 126.874C174.163 131.94 173.096 135.607 170.963 137.874C168.963 140.007 165.629 141.074 160.963 141.074C156.563 141.074 153.363 139.94 151.363 137.674C149.363 135.407 148.363 132.007 148.363 127.474C148.363 122.14 149.296 113.34 151.163 101.074C152.763 90.4071 153.563 83.6071 153.563 80.6737C153.563 78.5404 152.829 77.4737 151.363 77.4737C149.629 77.4737 147.163 79.7404 143.963 84.2737C140.896 88.6737 137.696 94.5404 134.363 101.874C131.163 109.207 128.563 116.94 126.563 125.074C125.096 131.34 123.363 135.607 121.363 137.874C119.496 140.007 116.496 141.074 112.363 141.074Z" fill="currentColor"></path>
<path d="M421.367 32.8867C415.793 33.4266 411.49 32.5709 408.459 30.3193C405.415 27.9351 403.668 24.4205 403.218 19.7755C402.768 15.1306 404.187 11.1084 407.474 7.70891C410.881 4.16384 415.306 2.12775 420.747 1.60063C425.657 1.12494 429.754 1.93366 433.038 4.02678C436.322 6.1199 438.176 9.3562 438.6 13.7357C439.114 19.0442 437.801 23.4581 434.659 26.9775C431.504 30.3641 427.073 32.3338 421.367 32.8867ZM412.612 141.638C408.365 142.049 405.362 141.469 403.602 139.898C401.842 138.327 400.783 135.684 400.423 131.968C400.32 130.906 400.273 129.035 400.281 126.355C400.051 101.863 401.428 79.4261 404.41 59.0436C405.073 54.8267 406.522 51.8062 408.756 49.9823C411.111 48.0127 415.008 46.7644 420.45 46.2373C426.156 45.6845 429.234 47.7305 429.684 52.3754C429.749 53.039 429.738 54.3126 429.653 56.1963C426.432 85.1752 425.156 109.344 425.826 128.703C425.972 132.976 425.001 136.084 422.912 138.028C420.823 139.971 417.389 141.175 412.612 141.638Z" fill="currentColor"></path>
<path d="M351.798 185.146C353.116 185.025 354.748 185.091 356.094 185.096C383.274 185.183 403.721 201.901 406.656 229.655C408.222 243.207 404.4 256.834 396.041 267.504C387.929 277.723 374.622 283.602 361.971 284.705C361.082 284.782 360.19 284.809 359.312 284.904C358.846 284.965 358.409 284.983 357.94 285.005C343.974 285.663 329.583 281.624 319.098 271.896C309.609 263.113 304.699 250.568 304.065 237.66C303.232 220.728 310.481 203.011 324.722 193.591C332.282 188.59 342.784 185.522 351.798 185.146ZM351.936 273.163C354.419 273.044 357.75 271.948 360.166 271.303C375.616 267.182 397.143 258.447 393.884 238.257C393.466 235.484 392.832 232.772 392.16 230.052C389.854 220.714 386.752 210.794 379.747 203.961C374.408 198.752 366.017 196.449 358.744 197.302C350.106 197.949 340.416 199.925 333.312 205.236C331.347 206.706 329.659 208.449 328.072 210.327C321.804 217.745 316.005 235.999 316.744 245.76C317.329 253.503 320.672 261.01 326.52 266.097C333.065 271.793 341.043 274.245 349.609 273.551C350.397 273.487 351.165 273.334 351.936 273.163Z" fill="currentColor" fill-opacity="0.952941"></path>
<path d="M374.98 208.409C375.646 208.174 375.55 208.052 376.059 208.32C376.164 209.564 373.992 212.633 373.321 213.8C371.555 216.9 369.811 220.019 368.09 223.156C357.198 242.855 352.234 253.819 331.899 260.77C331.545 261 331.452 260.966 331.042 260.956L330.87 260.535C331.448 257.707 334.819 251.986 335.932 249.001C342.432 231.561 352.559 217.844 367.892 211.046C370.144 210.048 372.645 209.335 374.98 208.409Z" fill="currentColor" fill-opacity="0.952941"></path>
<path d="M375.667 255.111C375.898 255.74 375.988 255.652 375.809 256.126C374.829 256.206 372.251 254.124 371.282 253.477C368.707 251.775 366.119 250.094 363.517 248.433C347.176 237.928 338.153 233.111 331.3 213.922C331.094 213.586 331.115 213.5 331.096 213.115L331.419 212.959C333.699 213.542 338.459 216.789 340.9 217.876C355.159 224.226 366.706 233.929 373.108 248.42C374.048 250.548 374.778 252.906 375.667 255.111Z" fill="currentColor" fill-opacity="0.952941"></path>
</svg>